<svg width="16" height="20" viewBox="0 0 16 20" fill="none" xmlns="http://www.w3.org/2000/svg">
<path d="M8 7.35C7.8 7.1 7.54167 6.904 7.225 6.762C6.90833 6.62067 6.56667 6.55 6.2 6.55C5.6 6.55 5.08333 6.76667 4.65 7.2C4.21667 7.63333 4 8.15 4 8.75C4 9.26667 4.13333 9.74167 4.4 10.175C4.66667 10.6083 5.28333 11.2917 6.25 12.225L7.325 13.225C7.50833 13.4083 7.73333 13.5 8 13.5C8.26667 13.5 8.49167 13.4083 8.675 13.225L9.725 12.25C10.675 11.3333 11.2917 10.6457 11.575 10.187C11.8583 9.729 12 9.25 12 8.75C12 8.15 11.7833 7.63333 11.35 7.2C10.9167 6.76667 10.4 6.55 9.8 6.55C9.45 6.55 9.11267 6.62067 8.788 6.762C8.46267 6.904 8.2 7.1 8 7.35ZM8 19.775H7.75C7.66667 19.775 7.59167 19.7583 7.525 19.725C5.34167 19.0417 3.54167 17.6873 2.125 15.662C0.708333 13.6373 0 11.4 0 8.95V4.225C0 3.80833 0.121 3.43333 0.363 3.1C0.604333 2.76667 0.916667 2.525 1.3 2.375L7.3 0.125C7.53333 0.0416667 7.76667 0 8 0C8.23333 0 8.46667 0.0416667 8.7 0.125L14.7 2.375C15.0833 2.525 15.396 2.76667 15.638 3.1C15.8793 3.43333 16 3.80833 16 4.225V8.95C16 11.4 15.2917 13.6373 13.875 15.662C12.4583 17.6873 10.6583 19.0417 8.475 19.725C8.39167 19.7583 8.23333 19.775 8 19.775Z" fill="white"/>
</svg>
